<?xml version="1.0" encoding="UTF-8" standalone="no"?>
<!DOCTYPE svg PUBLIC "-//W3C//DTD SVG 1.1//EN" "http://www.w3.org/Graphics/SVG/1.1/DTD/svg11.dtd">
<svg width="100%" height="100%" viewBox="0 0 179 41" version="1.1" xmlns="http://www.w3.org/2000/svg" xmlns:xlink="http://www.w3.org/1999/xlink" xml:space="preserve" xmlns:serif="http://www.serif.com/" style="fill-rule:evenodd;clip-rule:evenodd;stroke-linejoin:round;stroke-miterlimit:2;">
    <g transform="matrix(1,0,0,1,-871.309,-514.998)">
        <g>
            <path d="M1028.98,531.915C1030.64,529.561 1034.25,526.821 1036.61,526.959C1049.51,526.959 1042.84,555.035 1049.7,555.035C1046.6,555.035 1042.63,554.999 1042.63,554.999L1035.62,555.035C1035.62,555.035 1038.67,553.962 1038.65,551.96C1038.65,551.014 1038.78,531.006 1033.69,531.006C1032.31,531.006 1030.18,531.487 1028.98,532.439C1028.98,539.366 1028.98,551.291 1028.98,551.96C1028.97,553.962 1032.01,555.035 1032.01,555.035L1025.01,554.999L1018,555.035C1018,555.035 1021.05,553.962 1021.03,551.96C1021.03,551.014 1021.03,534.517 1021.03,533.571C1021.05,531.569 1017.8,530.496 1017.8,530.496C1025.21,530.496 1028.98,527.556 1028.98,527.556C1028.98,527.556 1028.98,529.327 1028.98,531.915Z"/>
            <g>
                <path d="M1015,527.556C1015,527.556 1015,551.014 1014.99,551.96C1014.98,553.962 1018.03,555.035 1018.03,555.035L1011.02,554.999L1004.01,555.035C1004.01,555.035 1007.06,553.962 1007.05,551.96C1007.04,551.014 1007.04,534.517 1007.05,533.571C1007.06,531.569 1003.81,530.496 1003.81,530.496C1011.22,530.496 1015,527.556 1015,527.556Z"/>
                <g transform="matrix(1.00352,0,0,1.00352,-3.28798,-1.89328)">
                    <circle cx="1010.1" cy="519.763" r="4.682"/>
                </g>
            </g>
            <path d="M966.14,531.64C967.465,529.49 970.235,526.959 974.211,526.959C978.614,526.959 981.74,531.611 982.006,531.901L982.019,531.915C983.678,529.561 987.287,526.821 989.641,526.959C1002.54,526.959 995.871,555.035 1002.74,555.035C999.633,555.035 995.661,554.999 995.661,554.999L988.654,555.035C988.654,555.035 991.701,553.962 991.688,551.96C991.682,551.014 991.81,531.006 986.722,531.006C985.345,531.006 983.213,531.487 982.019,532.439C982.019,539.366 982.018,551.291 982.014,551.96C982.001,553.962 985.048,555.035 985.048,555.035L978.041,554.999L971.034,555.035C971.034,555.035 974.081,553.962 974.068,551.96C974.062,551.014 974.062,534.517 974.068,533.571C974.077,532.215 972.484,530.32 970.379,530.32C968.988,530.32 967.196,531.402 966.14,532.489C966.14,539.424 966.14,551.293 966.136,551.96C966.123,553.962 969.17,555.035 969.17,555.035L962.163,554.999L955.156,555.035C955.156,555.035 958.203,553.962 958.19,551.96C958.184,551.014 958.184,534.517 958.19,533.571C958.203,531.569 954.953,530.496 954.953,530.496C962.362,530.496 966.14,527.556 966.14,527.556C966.14,527.556 966.14,529.202 966.14,531.64Z"/>
            <path d="M950.846,526.959C953.115,526.974 954.953,528.821 954.953,531.094C954.953,533.376 953.101,535.228 950.819,535.228C948.537,535.228 946.684,533.376 946.684,531.094C946.684,530.996 946.688,530.9 946.695,530.804C945.639,531.258 944.608,531.912 943.908,532.57C943.908,539.518 943.908,551.296 943.903,551.96C943.89,553.962 946.937,555.035 946.937,555.035L939.93,554.999L932.923,555.035C932.923,555.035 935.971,553.962 935.958,551.96C935.952,551.014 935.952,534.517 935.958,533.571C935.971,531.569 932.721,530.496 932.721,530.496C940.13,530.496 943.908,527.556 943.908,527.556C943.908,527.556 943.908,529.087 943.908,531.382C945.181,529.221 947.715,526.959 950.819,526.959L950.846,526.959Z"/>
            <path d="M915.011,537.987L931.018,537.987C931.018,537.987 930.443,526.904 920.531,526.904C904.687,526.904 902.517,555.915 920.169,555.915C931.238,555.915 931.6,544.122 931.6,544.122C931.6,544.122 930.587,550.344 923.859,550.344C914.816,550.344 915.011,537.987 915.011,537.987ZM915.041,536.994L921.935,536.994C923.276,536.994 923.995,535.678 923.995,533.381C923.995,531.445 923.575,527.984 920.697,527.984C914.681,527.984 915.041,536.004 915.041,536.994Z"/>
            <path d="M903.354,518.23L903.982,532.662C903.982,532.662 900.05,517.95 889.877,517.95C873.163,517.95 873.673,549.884 892.137,549.884C903.02,549.884 905.702,542.647 905.702,540.982C905.702,545.163 902.272,555.779 889.413,555.779C864.346,555.779 866.342,517.155 889.041,517.155C893.609,517.109 895.77,519.349 899.937,519.349C902.623,519.349 903.354,518.23 903.354,518.23Z"/>
        </g>
    </g>
</svg>
